<svg id="Layer_1" data-name="Layer 1" xmlns="http://www.w3.org/2000/svg" viewBox="0 0 682.69 381.17"><defs><style>.cls-1{fill:#989da9;}.cls-2{fill:#151823;}.cls-3{fill:#6d7381;}.cls-4{fill:#dcdee1;}.cls-5{fill:#878c9a;}.cls-6{fill:#f1f1f4;}.cls-7{fill:#9294a0;}.cls-8{fill:#bbbdc7;}.cls-9{fill:#1e1e1e;}.cls-10{fill:#eff1f5;}.cls-11{fill:#2f3449;}.cls-12{fill:#dfe2e7;}.cls-13{fill:#fff;}.cls-14{fill:none;stroke:#fff;stroke-miterlimit:10;}</style></defs><title>Artboard 1</title><path class="cls-1" d="M107.25,0h478a21.67,21.67,0,0,1,21.67,21.67V356a0,0,0,0,1,0,0H85.58a0,0,0,0,1,0,0V21.67A21.67,21.67,0,0,1,107.25,0Z"/><rect class="cls-2" x="104.92" y="27.33" width="483.33" height="302.67"/><path class="cls-3" d="M34.67,356H657.83a0,0,0,0,1,0,0v0a12,12,0,0,1-12,12H46.67a12,12,0,0,1-12-12v0A0,0,0,0,1,34.67,356Z"/><path class="cls-4" d="M34.67,356H657.83a0,0,0,0,1,0,0v0a2.33,2.33,0,0,1-2.33,2.33H37A2.33,2.33,0,0,1,34.67,356v0A0,0,0,0,1,34.67,356Z"/><path class="cls-4" d="M253.8,356H438.7a0,0,0,0,1,0,0v0a6,6,0,0,1-6,6H259.8a6,6,0,0,1-6-6v0A0,0,0,0,1,253.8,356Z"/><rect class="cls-4" x="6" y="275.17" width="54" height="88.17" rx="6.08" ry="6.08"/><polygon class="cls-5" points="10.94 357.47 14.33 381.54 19.32 381.54 47.71 381.54 52.69 381.54 56.08 357.47 10.94 357.47"/><polygon class="cls-6" points="56.08 281 52.69 256.93 47.71 256.93 19.32 256.93 14.33 256.93 10.94 281 56.08 281"/><rect class="cls-7" x="65.5" y="298.5" width="3.83" height="12.38"/><rect class="cls-4" x="65.5" y="320.92" width="2.33" height="19.67"/><rect class="cls-8" y="281" width="65.5" height="76.5" rx="11.58" ry="11.58"/><rect class="cls-9" x="1.17" y="282.36" width="63.17" height="73.77" rx="10.63" ry="10.63"/><rect class="cls-10" x="564.92" y="138.17" width="116.67" height="243" rx="18.54" ry="18.54"/><rect class="cls-11" x="571.25" y="167" width="104.33" height="185.33"/><rect class="cls-12" x="613.44" y="153.29" width="19.31" height="1.62" rx="0.81" ry="0.81"/><circle class="cls-12" cx="605.31" cy="154.1" r="0.81"/><rect class="cls-13" x="563.81" y="212.85" width="1.1" height="18.81"/><rect class="cls-13" x="563.81" y="190.98" width="1.1" height="18.81"/><rect class="cls-13" x="681.58" y="189.6" width="1.1" height="18.81"/><rect class="cls-13" x="563.81" y="169.67" width="1.1" height="10.94"/><circle class="cls-14" cx="623.15" cy="365.73" r="8.85"/></svg>